<svg baseProfile="full" height="28" version="1.1" viewBox="0 0 161 28" width="161" xmlns="http://www.w3.org/2000/svg" xmlns:ev="http://www.w3.org/2001/xml-events" xmlns:xlink="http://www.w3.org/1999/xlink"><defs /><g><path d="M11.44799176107106 1.75901132852729Q13.351184346035016 1.75901132852729 14.576725025746654 2.321318228630277Q15.802265705458291 2.8836251287332644 16.75386199794027 3.633367662203913Q17.33058702368692 4.0659114315139036 17.633367662203913 3.7342945417095788Q17.936148300720905 3.402677651905254 18.05149330587024 2.16271884654995H18.714727085478888Q18.657054582904223 3.287332646755921 18.628218331616893 4.887744593202884Q18.59938208032956 6.488156539649847 18.59938208032956 9.141091658084449H17.936148300720905Q17.791967044284245 7.814624098867148 17.561277033985583 6.877445932028837Q17.33058702368692 5.9402677651905265 16.926879505664264 5.21936148300721Q16.523171987641607 4.498455200823894 15.773429454170959 3.92173017507724Q15.052523171987643 3.2008238928939257 14.100926879505664 2.854788877445934Q13.149330587023687 2.508753861997942 12.111225540679712 2.508753861997942Q10.554067971163748 2.508753861997942 9.458290422245108 3.330587023686922Q8.362512873326468 4.152420185375902 7.684860968074151 5.565396498455201Q7.0072090628218335 6.9783728115345 6.690010298661175 8.751802265705457Q6.372811534500515 10.525231719876416 6.372811534500515 12.428424304840371Q6.372811534500515 14.360453141091659 6.70442842430484 16.133882595262616Q7.036045314109166 17.907312049433575 7.742533470648816 19.291452111225542Q8.449021627188465 20.67559217301751 9.57363542739444 21.483007209062823Q10.698249227600412 22.290422245108136 12.226570545829043 22.290422245108136Q13.17816683831102 22.290422245108136 14.144181256436664 21.92996910401648Q15.110195674562307 21.56951596292482 15.802265705458291 20.877445932028838Q16.926879505664264 20.012358393408856 17.33058702368692 18.729145211122557Q17.734294541709577 17.445932028836253 17.936148300720905 15.312049433573636H18.59938208032956Q18.59938208032956 18.05149330587024 18.628218331616893 19.738414006179198Q18.657054582904223 21.425334706488158 18.714727085478888 22.578784757981463H18.05149330587024Q17.936148300720905 21.33882595262616 17.662203913491247 21.0216271884655Q17.388259526261585 20.70442842430484 16.75386199794027 21.108135942327497Q15.68692070030896 21.857878475798145 14.490216271884655 22.420185375901134Q13.293511843460351 22.98249227600412 11.419155509783728 22.98249227600412Q8.362512873326468 22.98249227600412 6.070030895983522 21.742533470648816Q3.777548918640577 20.502574665293512 2.50875386199794 18.166838311019568Q1.239958805355304 15.831101956745623 1.239958805355304 12.543769309989703Q1.239958805355304 9.314109165808445 2.5520082389289396 6.891864057672502Q3.864057672502575 4.46961894953656 6.15653964984552 3.114315139031925Q8.449021627188465 1.75901132852729 11.44799176107106 1.75901132852729Z M28.461380020597325 7.266735324407827Q30.566426364572607 7.266735324407827 32.1524201853759 8.045314109165808Q33.7384140061792 8.82389289392379 34.63233779608651 10.55406797116375Q35.52626158599382 12.284243048403708 35.52626158599382 15.13903192584964Q35.52626158599382 17.99382080329557 34.63233779608651 19.709577754891864Q33.7384140061792 21.425334706488158 32.1524201853759 22.20391349124614Q30.566426364572607 22.98249227600412 28.461380020597325 22.98249227600412Q26.414006179196704 22.98249227600412 24.813594232749743 22.20391349124614Q23.213182286302782 21.425334706488158 22.304840370751805 19.709577754891864Q21.396498455200827 17.99382080329557 21.396498455200827 15.13903192584964Q21.396498455200827 12.284243048403708 22.304840370751805 10.55406797116375Q23.213182286302782 8.82389289392379 24.813594232749743 8.045314109165808Q26.414006179196704 7.266735324407827 28.461380020597325 7.266735324407827ZM28.461380020597325 7.84346035015448Q27.307929969104016 7.84346035015448 26.529351184346034 9.559217301750772Q25.750772399588055 11.274974253347064 25.750772399588055 15.13903192584964Q25.750772399588055 19.003089598352215 26.529351184346034 20.704428424304844Q27.307929969104016 22.40576725025747 28.461380020597325 22.40576725025747Q29.643666323377964 22.40576725025747 30.407826982492278 20.704428424304844Q31.17198764160659 19.003089598352215 31.17198764160659 15.13903192584964Q31.17198764160659 11.274974253347064 30.407826982492278 9.559217301750772Q29.643666323377964 7.84346035015448 28.461380020597325 7.84346035015448Z M43.196704428424304 7.3532440782698245V24.94335736354274Q43.196704428424304 26.298661174047375 43.88877445932029 26.74562306900103Q44.58084449021627 27.192584963954687 45.79196704428425 27.192584963954687V27.79814624098867Q45.0422245108136 27.76930998970134 43.73017507723996 27.72605561277034Q42.41812564366632 27.682801235839342 40.94747682801236 27.682801235839342Q39.88053553038105 27.682801235839342 38.85684860968074 27.72605561277034Q37.83316168898043 27.76930998970134 37.314109165808446 27.79814624098867V27.192584963954687Q38.26570545829043 27.192584963954687 38.65499485066941 26.78887744593203Q39.0442842430484 26.385169927909374 39.0442842430484 25.231719876416065V10.813594232749743Q39.0442842430484 9.515962924819775 38.640576725025745 8.895983522142123Q38.23686920700309 8.27600411946447 37.19876416065912 8.27600411946447V7.670442842430484Q38.12152420185376 7.756951596292483 38.98661174047374 7.756951596292483Q40.16889804325438 7.756951596292483 41.23583934088569 7.656024716786819Q42.30278063851699 7.555097837281155 43.196704428424304 7.3532440782698245ZM47.666323377960865 7.266735324407827Q49.13697219361483 7.266735324407827 50.29042224510813 8.059732234809475Q51.44387229660144 8.852729145211123 52.135942327497425 10.453141091658086Q52.82801235839341 12.053553038105047 52.82801235839341 14.446961894953656Q52.82801235839341 16.55200823892894 52.35221421215242 18.138002059732237Q51.876416065911435 19.723995880535533 50.99691040164779 20.805355303810508Q50.11740473738414 21.88671472708548 48.89186405767251 22.4346035015448Q47.666323377960865 22.98249227600412 46.13800205973224 22.98249227600412Q45.013388259526266 22.98249227600412 44.09062821833162 22.59320288362513Q43.167868177136974 22.203913491246137 42.67765190525232 21.483007209062823L42.966014418125646 21.108135942327497Q43.25437693099897 21.627188465499486 43.787847579814624 21.915550978372814Q44.32131822863028 22.203913491246137 45.013388259526266 22.203913491246137Q46.31101956745623 22.203913491246137 47.06076210092688 21.324407826982494Q47.81050463439753 20.444902162718847 48.142121524201855 18.844490216271886Q48.47373841400618 17.244078269824925 48.47373841400618 15.02368692070031Q48.47373841400618 12.543769309989703 48.15653964984552 11.130792996910403Q47.83934088568486 9.717816683831103 47.29145211122554 9.112255406797118Q46.74356333676622 8.506694129763131 45.96498455200824 8.506694129763131Q44.92687950566427 8.506694129763131 44.07621009268796 9.314109165808446Q43.22554067971164 10.12152420185376 43.110195674562306 11.621009268795056L42.966014418125646 10.611740473738415Q43.48506694129763 8.968074150360453 44.739443872296604 8.11740473738414Q45.99382080329558 7.266735324407827 47.666323377960865 7.266735324407827Z M68.7167868177137 7.670442842430484V8.247167868177137Q68.16889804325437 8.3913491246138 67.67868177136972 8.924819773429455Q67.18846549948506 9.458290422245108 66.72708547888774 10.727085478887744L62.66117404737384 22.146240988671472L61.59423274974253 24.16477857878476L55.307929969104016 9.890834191555099Q54.81771369721936 8.766220391349124 54.34191555097837 8.521112255406798Q53.86611740473738 8.27600411946447 53.52008238928939 8.27600411946447V7.670442842430484Q54.47167868177137 7.756951596292483 55.49536560247168 7.800205973223481Q56.519052523171986 7.84346035015448 57.470648815653966 7.84346035015448Q58.652935118434605 7.84346035015448 59.63336766220391 7.785787847579815Q60.61380020597322 7.7281153450051505 61.4788877445932 7.670442842430484V8.27600411946447Q60.90216271884655 8.27600411946447 60.39752832131823 8.3480947476828Q59.892893923789906 8.420185375901132 59.70545829042224 8.751802265705457Q59.51802265705458 9.083419155509784 59.864057672502575 9.890834191555099L63.49742533470649 18.657054582904223L63.237899073120495 18.83007209062822L65.37178166838311 12.86096807415036Q65.91967044284243 11.303810504634399 65.83316168898043 10.308959835221422Q65.74665293511843 9.314109165808445 65.19876416065912 8.809474768280124Q64.6508753861998 8.304840370751803 63.69927909371782 8.247167868177137V7.670442842430484Q64.16065911431514 7.699279093717816 64.6508753861998 7.7136972193614834Q65.14109165808445 7.7281153450051505 65.6313079299691 7.742533470648817Q66.12152420185376 7.756951596292483 66.49639546858909 7.756951596292483Q67.07312049433574 7.756951596292483 67.70751802265706 7.72811534500515Q68.34191555097837 7.699279093717816 68.7167868177137 7.670442842430484ZM62.66117404737384 22.146240988671472 61.5653964984552 25.231719876416065Q61.27703398558187 25.952626158599383 60.97425334706488 26.457260556127704Q60.67147270854789 26.961894953656024 60.29660144181256 27.279093717816686Q59.892893923789906 27.625128733264678 59.25849639546858 27.812564366632337Q58.62409886714727 28.0 57.787847579814624 28.0Q57.09577754891864 28.0 56.360453141091654 27.76930998970134Q55.625128733264674 27.53861997940268 55.13491246138002 27.01956745623069Q54.64469618949536 26.500514933058703 54.64469618949536 25.69309989701339Q54.64469618949536 24.799176107106078 55.27909371781668 24.265705458290423Q55.913491246138 23.732234809474768 56.95159629248198 23.732234809474768Q57.90319258496395 23.732234809474768 58.50875386199794 24.193614830072093Q59.11431513903192 24.654994850669414 59.11431513903192 25.548918640576726Q59.11431513903192 26.125643666323377 58.75386199794026 26.644696189495367Q58.39340885684861 27.163748712667356 57.672502574665295 27.423274974253346Q57.816683831101955 27.45211122554068 58.01853759011328 27.45211122554068Q58.22039134912461 27.45211122554068 58.33573635427395 27.45211122554068Q59.20082389289392 27.45211122554068 59.864057672502575 26.90422245108136Q60.52729145211123 26.35633367662204 60.959835221421216 25.1740473738414L61.96910401647786 22.203913491246137Z M87.40267765190525 2.16271884654995Q87.28733264675593 3.633367662203913 87.24407826982493 4.988671472708548Q87.20082389289392 6.343975283213183 87.20082389289392 7.064881565396499Q87.20082389289392 7.699279093717816 87.22966014418125 8.27600411946447Q87.2584963954686 8.852729145211123 87.28733264675593 9.25643666323378H86.62409886714727Q86.16271884654995 6.834191555097837 85.4562306900103 5.421215242018538Q84.74974253347065 4.008238928939239 83.76930998970134 3.4170957775489192Q82.78887744593203 2.8259526261585997 81.46240988671472 2.8259526261585997H80.79917610710608V19.291452111225542Q80.79917610710608 20.444902162718847 81.0442842430484 21.0216271884655Q81.28939237899073 21.598352214212152 81.95262615859937 21.785787847579815Q82.61585993820803 21.97322348094748 83.88465499485068 22.00205973223481V22.578784757981463Q82.99073120494336 22.54994850669413 81.50566426364573 22.5211122554068Q80.0205973223481 22.492276004119464 78.40576725025747 22.492276004119464Q76.81977342945417 22.492276004119464 75.40679711637488 22.5211122554068Q73.99382080329558 22.54994850669413 73.12873326467559 22.578784757981463V22.00205973223481Q74.42636457260556 21.97322348094748 75.08959835221421 21.785787847579815Q75.75283213182287 21.598352214212152 75.98352214212153 21.0216271884655Q76.21421215242019 20.444902162718847 76.21421215242019 19.291452111225542V2.8259526261585997H75.57981462409887Q74.25334706488157 2.8259526261585997 73.27291452111226 3.4170957775489192Q72.29248197734294 4.008238928939239 71.60041194644697 5.406797116374872Q70.90834191555098 6.805355303810504 70.389289392379 9.25643666323378H69.72605561277034Q69.78372811534501 8.852729145211123 69.79814624098867 8.27600411946447Q69.81256436663234 7.699279093717816 69.81256436663234 7.064881565396499Q69.81256436663234 6.343975283213183 69.76930998970134 4.988671472708548Q69.72605561277034 3.633367662203913 69.61071060762102 2.16271884654995Q70.93717816683831 2.1915550978372806 72.50875386199795 2.220391349124613Q74.08032955715757 2.2492276004119454 75.66632337796086 2.2492276004119454Q77.25231719876416 2.2492276004119454 78.52111225540679 2.2492276004119454Q79.81874356333677 2.2492276004119454 81.39031925849639 2.2492276004119454Q82.96189495365603 2.2492276004119454 84.54788877445932 2.220391349124613Q86.13388259526262 2.1915550978372806 87.40267765190525 2.16271884654995Z M98.76416065911431 7.266735324407827Q99.68692070030896 7.266735324407827 100.26364572605561 7.656024716786818Q100.84037075180227 8.045314109165808 101.11431513903193 8.650875386199793Q101.38825952626159 9.25643666323378 101.38825952626159 9.919670442842431Q101.38825952626159 10.98661174047374 100.76828012358393 11.664263645726056Q100.14830072090628 12.341915550978372 99.13903192584964 12.341915550978372Q98.129763130793 12.341915550978372 97.56745623069001 11.837281153450052Q97.00514933058703 11.332646755921731 97.00514933058703 10.496395468589084Q97.00514933058703 9.68898043254377 97.36560247167868 9.155509783728117Q97.72605561277034 8.622039134912463 98.27394438722966 8.247167868177137Q97.870236869207 8.131822863027807 97.46652935118435 8.27600411946447Q96.91864057672502 8.362512873326468 96.42842430484038 8.722966014418127Q95.93820803295571 9.083419155509784 95.59217301750772 9.616889804325439Q95.24613800205974 10.150360453141092 95.04428424304841 10.770339855818744Q94.84243048403708 11.390319258496396 94.84243048403708 11.967044284243048V19.6086508753862Q94.84243048403708 20.992790937178167 95.5200823892894 21.483007209062823Q96.1977342945417 21.97322348094748 97.55303810504634 21.97322348094748V22.578784757981463Q96.8898043254377 22.54994850669413 95.62100926879506 22.506694129763133Q94.35221421215242 22.463439752832134 92.96807415036045 22.463439752832134Q91.81462409886714 22.463439752832134 90.63233779608652 22.506694129763133Q89.45005149330588 22.54994850669413 88.84449021627188 22.578784757981463V21.97322348094748Q89.85375901132853 21.97322348094748 90.27188465499486 21.540679711637488Q90.69001029866118 21.108135942327497 90.69001029866118 19.897013388259527V10.813594232749743Q90.69001029866118 9.515962924819775 90.30072090628218 8.895983522142123Q89.9114315139032 8.27600411946447 88.84449021627188 8.27600411946447V7.670442842430484Q89.76725025746653 7.756951596292483 90.63233779608652 7.756951596292483Q91.84346035015449 7.756951596292483 92.89598352214213 7.656024716786819Q93.94850669412976 7.555097837281155 94.84243048403708 7.3532440782698245V10.03501544799176Q95.18846549948506 9.25643666323378 95.76519052523172 8.622039134912463Q96.34191555097837 7.9876416065911435 97.09165808444902 7.6271884654994855Q97.84140061791967 7.266735324407827 98.76416065911431 7.266735324407827Z M106.29042224510815 22.78063851699279Q104.99279093717817 22.78063851699279 104.1277033985582 22.290422245108136Q103.26261585993821 21.80020597322348 102.85890834191555 20.9783728115345Q102.4552008238929 20.15653964984552 102.4552008238929 19.17610710607621Q102.4552008238929 17.93614830072091 103.01750772399589 17.157569515962926Q103.57981462409887 16.378990731204944 104.47373841400619 15.888774459320288Q105.3676622039135 15.398558187435633 106.36251287332647 15.081359423274975Q107.35736354273945 14.764160659114316 108.26570545829043 14.461380020597323Q109.1740473738414 14.15859938208033 109.73635427394439 13.740473738414007Q110.29866117404738 13.322348094747683 110.29866117404738 12.659114315139032V10.409886714727087Q110.29866117404738 9.660144181256436 110.05355303810505 9.069001029866119Q109.80844490216272 8.477857878475799 109.3038105046344 8.16065911431514Q108.79917610710608 7.84346035015448 107.99176107106076 7.84346035015448Q107.41503604531411 7.84346035015448 106.83831101956746 8.002059732234809Q106.2615859938208 8.16065911431514 105.88671472708549 8.535530381050464Q106.6941297631308 8.82389289392379 107.14109165808446 9.41503604531411Q107.58805355303811 10.006179196704428 107.58805355303811 10.755921730175078Q107.58805355303811 11.736354273944388 106.91040164778579 12.31307929969104Q106.23274974253347 12.889804325437694 105.30998970133884 12.889804325437694Q104.27188465499485 12.889804325437694 103.7384140061792 12.24098867147271Q103.20494335736355 11.592173017507724 103.20494335736355 10.66941297631308Q103.20494335736355 9.833161688980432 103.62306900102988 9.285272914521112Q104.04119464469619 8.737384140061792 104.79093717816684 8.247167868177137Q105.59835221421216 7.785787847579815 106.73738414006179 7.526261585993821Q107.87641606591143 7.266735324407827 109.20288362512873 7.266735324407827Q110.52935118434604 7.266735324407827 111.59629248197734 7.5406797116374875Q112.66323377960866 7.814624098867148 113.38414006179197 8.535530381050464Q114.04737384140063 9.198764160659115 114.24922760041196 10.164778578784759Q114.45108135942328 11.130792996910403 114.45108135942328 12.601441812564367V20.444902162718847Q114.45108135942328 21.16580844490216 114.59526261585995 21.439752832131823Q114.7394438722966 21.713697219361485 115.0854788877446 21.713697219361485Q115.34500514933059 21.713697219361485 115.59011328527292 21.56951596292482Q115.83522142121525 21.425334706488158 116.12358393408857 21.22348094747683L116.4119464469619 21.713697219361485Q115.80638516992792 22.23274974253347 115.01338825952627 22.506694129763133Q114.22039134912461 22.78063851699279 113.23995880535531 22.78063851699279Q112.173017507724 22.78063851699279 111.53861997940268 22.4778578784758Q110.90422245108137 22.175077239958807 110.6302780638517 21.656024716786817Q110.35633367662204 21.13697219361483 110.35633367662204 20.444902162718847Q109.66426364572607 21.540679711637488 108.68383110195676 22.160659114315138Q107.70339855818744 22.78063851699279 106.29042224510815 22.78063851699279ZM108.33779608650876 20.935118434603503Q108.91452111225541 20.935118434603503 109.3903192584964 20.66117404737384Q109.8661174047374 20.387229660144182 110.29866117404738 19.752832131822863V13.841400617919671Q110.03913491246138 14.27394438722966 109.57775489186406 14.619979402677652Q109.11637487126674 14.966014418125644 108.59732234809476 15.326467559217303Q108.07826982492277 15.68692070030896 107.60247167868178 16.11946446961895Q107.12667353244079 16.55200823892894 106.83831101956747 17.186405767250257Q106.54994850669414 17.820803295571576 106.54994850669414 18.714727085478888Q106.54994850669414 19.839340885684862 107.0401647785788 20.387229660144182Q107.53038105046345 20.935118434603503 108.33779608650876 20.935118434603503Z M131.4356333676622 0.0V19.40679711637487Q131.4356333676622 20.70442842430484 131.83934088568486 21.324407826982494Q132.24304840370752 21.944387229660144 133.2811534500515 21.944387229660144V22.54994850669413Q132.3872296601442 22.463439752832134 131.49330587023687 22.463439752832134Q130.2821833161689 22.463439752832134 129.22966014418125 22.54994850669413Q128.1771369721936 22.636457260556128 127.2832131822863 22.86714727085479V3.4603501544799187Q127.2832131822863 2.16271884654995 126.89392378990732 1.542739443872298Q126.50463439752832 0.9227600411946462 125.43769309989702 0.9227600411946462V0.31719876416065773Q126.36045314109165 0.4037075180226566 127.22554067971164 0.4037075180226566Q128.40782698249228 0.4037075180226566 129.47476828012358 0.30278063851699244Q130.5417095777549 0.2018537590113283 131.4356333676622 0.0ZM124.08238928939238 7.266735324407827Q125.35118434603501 7.266735324407827 126.31719876416065 7.684860968074151Q127.2832131822863 8.102986611740475 127.83110195674563 9.083419155509784L127.48506694129763 9.400617919670443Q127.1101956745623 8.70854788877446 126.49021627188466 8.405767250257467Q125.870236869207 8.102986611740475 125.17816683831101 8.102986611740475Q123.70751802265706 8.102986611740475 122.84243048403707 9.818743563336767Q121.97734294541709 11.53450051493306 122.00617919670442 15.110195674562307Q122.00617919670442 17.561277033985583 122.33779608650875 19.017507723995884Q122.66941297631308 20.47373841400618 123.28939237899073 21.1081359423275Q123.90937178166838 21.742533470648816 124.7167868177137 21.742533470648816Q125.69721936148301 21.742533470648816 126.47579814624099 20.963954685890833Q127.25437693099897 20.185375901132854 127.31204943357363 18.85890834191555L127.4562306900103 19.868177136972193Q127.02368692070031 21.396498455200824 126.05767250257466 22.189495365602472Q125.09165808444902 22.98249227600412 123.53450051493306 22.98249227600412Q121.83316168898044 22.98249227600412 120.49227600411947 22.146240988671472Q119.1513903192585 21.309989701338825 118.40164778578784 19.5653964984552Q117.6519052523172 17.820803295571576 117.6519052523172 15.052523171987641Q117.6519052523172 12.428424304840371 118.48815653964985 10.712667353244079Q119.3244078269825 8.996910401647787 120.7806385169928 8.131822863027807Q122.2368692070031 7.266735324407827 124.08238928939238 7.266735324407827Z M141.93202883625128 7.266735324407827Q144.46961894953657 7.266735324407827 145.9114315139032 8.766220391349126Q147.35324407826982 10.265705458290423 147.35324407826982 13.668383110195675H137.8661174047374L137.80844490216273 13.120494335736355H143.71987641606592Q143.74871266735326 11.707518022657055 143.54685890834193 10.51081359423275Q143.3450051493306 9.314109165808445 142.9124613800206 8.593202883625128Q142.4799176107106 7.872296601441812 141.7590113285273 7.872296601441812Q140.74974253347065 7.872296601441812 140.043254376931 9.141091658084449Q139.33676622039135 10.409886714727087 139.1925849639547 13.351184346035016L139.2790937178167 13.524201853759012Q139.25025746652935 13.870236869207003 139.2358393408857 14.245108135942328Q139.22142121524203 14.619979402677654 139.22142121524203 15.02368692070031Q139.22142121524203 17.013388259526263 139.783728115345 18.253347064881567Q140.346035015448 19.49330587023687 141.21112255406797 20.055612770339856Q142.07621009268794 20.617919670442845 142.97013388259526 20.617919670442845Q143.57569515962925 20.617919670442845 144.22451081359424 20.430484037075182Q144.87332646755922 20.24304840370752 145.53656024716787 19.738414006179198Q146.19979402677652 19.233779608650877 146.77651905252318 18.31101956745623L147.29557157569516 18.484037075180225Q146.94953656024717 19.57981462409887 146.19979402677652 20.617919670442845Q145.45005149330586 21.656024716786817 144.29660144181258 22.31925849639547Q143.14315139031928 22.98249227600412 141.52832131822862 22.98249227600412Q139.56745623069003 22.98249227600412 138.06797116374872 22.146240988671472Q136.56848609680742 21.309989701338825 135.7178166838311 19.6086508753862Q134.8671472708548 17.907312049433575 134.8671472708548 15.283213182286303Q134.8671472708548 12.601441812564367 135.77548918640576 10.813594232749743Q136.68383110195674 9.02574665293512 138.2842430484037 8.146240988671472Q139.88465499485068 7.266735324407827 141.93202883625128 7.266735324407827Z M158.94541709577757 7.266735324407827Q159.8681771369722 7.266735324407827 160.44490216271885 7.656024716786818Q161.02162718846552 8.045314109165808 161.2955715756952 8.650875386199793Q161.56951596292484 9.25643666323378 161.56951596292484 9.919670442842431Q161.56951596292484 10.98661174047374 160.94953656024717 11.664263645726056Q160.32955715756952 12.341915550978372 159.32028836251288 12.341915550978372Q158.31101956745624 12.341915550978372 157.74871266735326 11.837281153450052Q157.18640576725028 11.332646755921731 157.18640576725028 10.496395468589084Q157.18640576725028 9.68898043254377 157.54685890834193 9.155509783728117Q157.90731204943359 8.622039134912463 158.4552008238929 8.247167868177137Q158.05149330587025 8.131822863027807 157.6477857878476 8.27600411946447Q157.09989701338827 8.362512873326468 156.6096807415036 8.722966014418127Q156.11946446961898 9.083419155509784 155.77342945417098 9.616889804325439Q155.42739443872298 10.150360453141092 155.22554067971166 10.770339855818744Q155.02368692070033 11.390319258496396 155.02368692070033 11.967044284243048V19.6086508753862Q155.02368692070033 20.992790937178167 155.70133882595263 21.483007209062823Q156.37899073120496 21.97322348094748 157.7342945417096 21.97322348094748V22.578784757981463Q157.07106076210096 22.54994850669413 155.8022657054583 22.506694129763133Q154.53347064881567 22.463439752832134 153.1493305870237 22.463439752832134Q151.9958805355304 22.463439752832134 150.81359423274978 22.506694129763133Q149.63130792996913 22.54994850669413 149.02574665293514 22.578784757981463V21.97322348094748Q150.03501544799178 21.97322348094748 150.4531410916581 21.540679711637488Q150.8712667353244 21.108135942327497 150.8712667353244 19.897013388259527V10.813594232749743Q150.8712667353244 9.515962924819775 150.4819773429454 8.895983522142123Q150.09268795056644 8.27600411946447 149.02574665293514 8.27600411946447V7.670442842430484Q149.94850669412978 7.756951596292483 150.81359423274975 7.756951596292483Q152.02471678681772 7.756951596292483 153.07723995880536 7.656024716786819Q154.129763130793 7.555097837281155 155.02368692070033 7.3532440782698245V10.03501544799176Q155.36972193614832 9.25643666323378 155.946446961895 8.622039134912463Q156.52317198764163 7.9876416065911435 157.27291452111228 7.6271884654994855Q158.0226570545829 7.266735324407827 158.94541709577757 7.266735324407827Z " fill="rgb(0,0,0)" transform="translate(-1.239958805355304, 0)" /></g></svg>